<?xml version="1.0" encoding="utf-8"?>
<!-- Generator: Adobe Illustrator 19.0.0, SVG Export Plug-In . SVG Version: 6.00 Build 0)  -->
<svg version="1.1" id="Layer_1" xmlns="http://www.w3.org/2000/svg" xmlns:xlink="http://www.w3.org/1999/xlink" x="0px" y="0px"
	 viewBox="0 0 35 35" style="enable-background:new 0 0 35 35;" xml:space="preserve">
<style type="text/css">
	.st0{fill:#83D5F7;}
	.st1{fill:#333333;}
</style>
<symbol  id="Ikona_tekst" viewBox="0 -35 35 35">
	<path class="st0" d="M35-17.5C35-27.2,27.2-35,17.5-35S0-27.2,0-17.5S7.8,0,17.5,0S35-7.8,35-17.5z"/>
	<g>
		<polygon class="st1" points="17.1,-11.6 7.1,-11.6 7.1,-9.6 17.1,-9.6 		"/>
		<polygon class="st1" points="16.1,-26.6 7.1,-26.6 7.1,-24.6 16.1,-24.6 		"/>
		<polygon class="st1" points="28.1,-11.6 19.1,-11.6 19.1,-9.6 28.1,-9.6 		"/>
		<polygon class="st1" points="17.1,-21.6 7.1,-21.6 7.1,-19.6 17.1,-19.6 		"/>
		<polygon class="st1" points="28.1,-21.6 19.1,-21.6 19.1,-19.6 28.1,-19.6 		"/>
		<polygon class="st1" points="11.1,-16.6 7.1,-16.6 7.1,-14.6 11.1,-14.6 		"/>
		<polygon class="st1" points="23.1,-16.6 13.1,-16.6 13.1,-14.6 23.1,-14.6 		"/>
		<polygon class="st1" points="28.1,-16.6 25.1,-16.6 25.1,-14.6 28.1,-14.6 		"/>
	</g>
</symbol>
<use xlink:href="#Ikona_tekst"  width="35" height="35" y="-35" transform="matrix(1 0 0 -1 0 0)" style="overflow:visible;"/>
</svg>
