<?xml version="1.0" encoding="utf-8"?>
<!-- Generator: Adobe Illustrator 18.1.1, SVG Export Plug-In . SVG Version: 6.00 Build 0)  -->
<svg version="1.1" id="Warstwa_1" xmlns="http://www.w3.org/2000/svg" xmlns:xlink="http://www.w3.org/1999/xlink" x="0px" y="0px"
	 width="29px" height="42px" viewBox="0 0 29 42" enable-background="new 0 0 29 42" xml:space="preserve">
<path fill="#E9E8E4" d="M25.6,0c0.8,0,1.4,0.5,1.4,1.3s-0.6,1.3-1.4,1.3S24.2,2,24.2,1.3S24.8,0,25.6,0h-4.3c0.8,0,1.4,0.5,1.4,1.3
	S22,2.6,21.2,2.6c-0.8,0-1.4-0.5-1.4-1.3S20.5,0,21.2,0h-4.3c0.8,0,1.4,0.5,1.4,1.3s-0.6,1.3-1.4,1.3S15.5,2,15.5,1.3S16.1,0,16.9,0
	h-4.3c0.8,0,1.4,0.5,1.4,1.3s-0.6,1.3-1.4,1.3c-0.8,0-1.4-0.5-1.4-1.3S11.8,0,12.5,0H8.2c0.8,0,1.4,0.5,1.4,1.3S8.9,2.6,8.2,2.6
	S6.8,2,6.8,1.3S7.4,0,8.2,0H3.8c0.8,0,1.4,0.5,1.4,1.3S4.6,2.6,3.8,2.6C3.1,2.6,2.5,2,2.5,1.3S3.1,0,3.8,0H0v42h29V0H25.6z"/>
<rect x="7" y="31" fill="#97999B" width="15" height="2"/>
<rect x="11" y="35" fill="#97999B" width="7" height="2"/>
</svg>
