<?xml version="1.0" encoding="utf-8"?>
<!-- Generator: Adobe Illustrator 19.0.0, SVG Export Plug-In . SVG Version: 6.00 Build 0)  -->
<svg version="1.1" id="Layer_1" xmlns="http://www.w3.org/2000/svg" xmlns:xlink="http://www.w3.org/1999/xlink" x="0px" y="0px"
	 width="31.9px" height="31.9px" viewBox="0 0 31.9 31.9" enable-background="new 0 0 31.9 31.9" xml:space="preserve">
<circle fill="none" stroke="#C8C8C8" stroke-miterlimit="10" cx="15.9" cy="15.9" r="15.4"/>
<path id="smartphone-icon_6_" fill="#C8C8C8" d="M20.5,6.7h-8.9c-0.6,0-1.1,0.5-1.1,1.1c0,0,0,14.6,0,15.2c0,2.4,3.5,2.5,5.6,2.5
	c2.1,0,5.6-0.2,5.6-2.5c0-0.6,0-15.2,0-15.2C21.6,7.2,21.1,6.7,20.5,6.7z M16,24.1c-0.6,0-1.1-0.5-1.1-1.1c0-0.6,0.5-1.1,1.1-1.1
	c0.6,0,1.1,0.5,1.1,1.1C17.1,23.6,16.6,24.1,16,24.1z M19.9,20.7h-7.9V9.3h7.9V20.7z"/>
</svg>
