<?xml version="1.0" encoding="utf-8"?>
<!-- Generator: Adobe Illustrator 18.1.1, SVG Export Plug-In . SVG Version: 6.00 Build 0)  -->
<svg version="1.1" id="Warstwa_1" xmlns="http://www.w3.org/2000/svg" xmlns:xlink="http://www.w3.org/1999/xlink" x="0px" y="0px"
	 width="74px" height="26px" viewBox="0 0 74 26" enable-background="new 0 0 74 26" xml:space="preserve">
<rect x="1.6" y="4.2" fill="#333333" width="71" height="3"/>
<rect x="1.6" y="19.2" fill="#333333" width="71" height="3"/>
<rect x="7.6" y="1.2" fill="#333333" width="1" height="24"/>
<rect x="12.6" y="1.2" fill="#333333" width="1" height="24"/>
<rect x="17.6" y="1.2" fill="#333333" width="1" height="24"/>
<rect x="22.6" y="1.2" fill="#333333" width="1" height="24"/>
<rect x="27.6" y="1.2" fill="#333333" width="1" height="24"/>
<rect x="32.6" y="1.2" fill="#333333" width="1" height="24"/>
<rect x="37.6" y="1.2" fill="#333333" width="1" height="24"/>
<rect x="42.6" y="1.2" fill="#333333" width="1" height="24"/>
<rect x="47.6" y="1.2" fill="#333333" width="1" height="24"/>
<rect x="52.6" y="1.2" fill="#333333" width="1" height="24"/>
<rect x="57.6" y="1.2" fill="#333333" width="1" height="24"/>
<rect x="62.6" y="1.2" fill="#333333" width="1" height="24"/>
<rect x="67.6" y="1.2" fill="#333333" width="1" height="24"/>
<rect x="72.6" y="1.2" fill="#333333" width="1" height="24"/>
</svg>
