<?xml version="1.0" encoding="utf-8"?>
<!-- Generator: Adobe Illustrator 18.1.1, SVG Export Plug-In . SVG Version: 6.00 Build 0)  -->
<svg version="1.1" id="Warstwa_1" xmlns="http://www.w3.org/2000/svg" xmlns:xlink="http://www.w3.org/1999/xlink" x="0px" y="0px"
	 width="24px" height="28px" viewBox="-12 -13 24 28" enable-background="new -12 -13 24 28" xml:space="preserve">
<symbol  id="pdf" viewBox="-12 -14 24 28">
	<g>
		<polygon fill="#333333" points="4,14 -12,14 -12,-14 12,-14 12,6 4,6 		"/>
		<polygon fill="#333333" points="5,14 5,7 12,7 		"/>
	</g>
	<g>
		<g>
			<path fill="#F5F4F0" d="M-8.4-2.8H-6c1.5,0,2.4-1.1,2.4-2.4S-4.5-7.6-6-7.6h-1.5v-2.2h-0.9V-2.8z M-4.5-5.2
				c0,0.8-0.6,1.6-1.5,1.6h-1.5v-3.1H-6C-5-6.8-4.5-6.1-4.5-5.2z"/>
			<path fill="#F5F4F0" d="M-0.3-2.8c2.3,0,3.6-1.7,3.6-3.5S2-9.8-0.3-9.8h-2.2v7H-0.3z M-1.6-3.7V-9h1.2c1.7,0,2.7,1.3,2.7,2.7
				c0,1.4-1,2.7-2.7,2.7h-1.2V-3.7z"/>
			<path fill="#F5F4F0" d="M5.4-3.7v-2.5h3V-7h-3v-2.9H4.5v7h3.9v-0.8C8.4-3.7,5.4-3.7,5.4-3.7z"/>
		</g>
	</g>
</symbol>
<use xlink:href="#pdf"  width="24" height="28" id="XMLID_24_" x="-12" y="-14" transform="matrix(1 0 0 -1 0 1)" overflow="visible"/>
</svg>
