<?xml version="1.0" encoding="utf-8"?>
<!-- Generator: Adobe Illustrator 18.1.1, SVG Export Plug-In . SVG Version: 6.00 Build 0)  -->
<svg version="1.1" id="Warstwa_1" xmlns="http://www.w3.org/2000/svg" xmlns:xlink="http://www.w3.org/1999/xlink" x="0px" y="0px"
	 viewBox="0 0 24 28" enable-background="new 0 0 24 28" xml:space="preserve">
<symbol  id="zip" viewBox="0 -28 24 28">
	<g>
		<polygon fill="#333333" points="16,0 0,0 0,-28 24,-28 24,-8 16,-8 		"/>
		<polygon fill="#333333" points="17,0 17,-7 24,-7 		"/>
	</g>
	<g>
		<polygon fill="#F5F4F0" points="7,-2 4,-2 4,0 7,0 		"/>
		<polygon fill="#F5F4F0" points="10,-4 7,-4 7,-2 10,-2 		"/>
		<polygon fill="#F5F4F0" points="7,-6 4,-6 4,-4 7,-4 		"/>
		<polygon fill="#F5F4F0" points="10,-8 7,-8 7,-6 10,-6 		"/>
		<polygon fill="#F5F4F0" points="7,-10 4,-10 4,-8 7,-8 		"/>
		<polygon fill="#F5F4F0" points="10,-12 7,-12 7,-10 10,-10 		"/>
	</g>
	<g>
		<path fill="#F5F4F0" d="M3.3-16.8h5.2L4.7-23h3.9v-0.8H3.1L7-17.7H3.3V-16.8z"/>
		<path fill="#F5F4F0" d="M9.4-16.8h0.9v-7H9.4V-16.8z"/>
		<path fill="#F5F4F0" d="M11.9-16.8h2.5c1.5,0,2.4-1.1,2.4-2.4c0-1.3-0.9-2.4-2.4-2.4h-1.5v-2.2h-0.9V-16.8z M15.8-19.2
			c0,0.8-0.6,1.6-1.5,1.6h-1.5v-3.1h1.5C15.3-20.8,15.8-20.1,15.8-19.2z"/>
	</g>
</symbol>
<use xlink:href="#zip"  width="24" height="28" id="XMLID_39_" x="0" y="-28" transform="matrix(1 0 0 -1 -1.972020e-004 -5.470918e-005)" overflow="visible"/>
</svg>
