<?xml version="1.0" encoding="utf-8"?>
<!-- Generator: Adobe Illustrator 18.1.1, SVG Export Plug-In . SVG Version: 6.00 Build 0)  -->
<svg version="1.1" id="Warstwa_1" xmlns="http://www.w3.org/2000/svg" xmlns:xlink="http://www.w3.org/1999/xlink" x="0px" y="0px"
	 viewBox="0 0 22 40" enable-background="new 0 0 22 40" xml:space="preserve">
<path id="location-4-icon_8_" opacity="0.93" fill="#83D5F7" d="M10.6,0.2C4.9,0.2,0.3,4.8,0.3,10.6S4.8,23,10.6,33
	C16.5,23,21,16.3,21,10.6S16.3,0.2,10.6,0.2z"/>
<ellipse fill="#333333" cx="10.7" cy="38.2" rx="1.7" ry="1.6"/>
<g>
	<rect x="4.6" y="6.9" fill="#333333" width="6.1" height="1.2"/>
	<rect x="4.6" y="16.1" fill="#333333" width="5.5" height="1.2"/>
	<rect x="12" y="6.9" fill="#333333" width="5.5" height="1.2"/>
	<rect x="4.6" y="13.1" fill="#333333" width="6.1" height="1.2"/>
	<rect x="12" y="13.1" fill="#333333" width="5.5" height="1.2"/>
	<rect x="4.6" y="10" fill="#333333" width="2.5" height="1.2"/>
	<rect x="8.3" y="10" fill="#333333" width="6.1" height="1.2"/>
	<rect x="15.7" y="10" fill="#333333" width="1.8" height="1.2"/>
</g>
</svg>
