<?xml version="1.0" encoding="utf-8"?>
<!-- Generator: Adobe Illustrator 18.1.1, SVG Export Plug-In . SVG Version: 6.00 Build 0)  -->
<svg version="1.1" id="Warstwa_1" xmlns="http://www.w3.org/2000/svg" xmlns:xlink="http://www.w3.org/1999/xlink" x="0px" y="0px"
	 viewBox="0 0 29 21" enable-background="new 0 0 29 21" xml:space="preserve">
<symbol  id="Ikona_cytat" viewBox="0 -20.8 28.1 20.8">
	<g opacity="0.26">
		<path fill="#5D5E5E" d="M12.3-14.8c0-1.6-0.6-3-1.8-4.2c-1.2-1.2-2.7-1.8-4.5-1.8c-1.9,0-3.4,0.7-4.4,2.1c-1,1.4-1.6,3.5-1.6,6.2
			C0-8.2,1.2-5.1,3.6-3c2.4,2,5.6,3,9.5,3l-0.3-3.2C9.3-3.2,7.1-4.5,6.1-7C5.6-7.9,5.3-8.6,5.3-9.2c-0.1-0.6-0.1-1.1-0.1-1.6
			c0.6,0.5,1.4,0.7,2.5,0.7c1.4,0,2.5-0.4,3.3-1.3C11.8-12.3,12.3-13.4,12.3-14.8z M27.2-14.8c0-1.6-0.6-3-1.7-4.2
			c-1.2-1.2-2.6-1.8-4.4-1.8c-1.9,0-3.4,0.7-4.5,2.1c-1.1,1.4-1.6,3.5-1.6,6.3c0,4.1,1.2,7.1,3.6,9.2C20.9-1,24.1,0,28.1,0l-0.3-3.2
			c-1.7,0-3.1-0.3-4.3-1c-1.2-0.6-2-1.6-2.5-2.8c-0.4-0.9-0.7-1.6-0.8-2.2c-0.1-0.6-0.1-1.1,0-1.6c0.6,0.5,1.4,0.7,2.4,0.7
			c1.4,0,2.5-0.4,3.4-1.3C26.8-12.3,27.2-13.4,27.2-14.8z"/>
	</g>
</symbol>
<use xlink:href="#Ikona_cytat"  width="28.1" height="20.8" x="0" y="-20.8" transform="matrix(1 0 0 -1 0.4527 0.1108)" overflow="visible"/>
</svg>
