<?xml version="1.0" encoding="utf-8"?>
<!-- Generator: Adobe Illustrator 18.1.1, SVG Export Plug-In . SVG Version: 6.00 Build 0)  -->
<svg version="1.1" id="Warstwa_1" xmlns="http://www.w3.org/2000/svg" xmlns:xlink="http://www.w3.org/1999/xlink" x="0px" y="0px"
	 width="54px" height="103px" viewBox="0 0 54 103" enable-background="new 0 0 54 103" xml:space="preserve">
<symbol  id="Pin_5" viewBox="-16.8 -32.1 33.7 64.1">
	<path id="location-4-icon_4_" opacity="0.93" fill="#FFC74D" d="M0,32.1c-9.3,0-16.8-7.5-16.8-16.8S-9.5-4.9,0-21.1
		c9.5,16.2,16.8,27,16.8,36.3S9.3,32.1,0,32.1z M6.3,15.5c0-3.4-2.7-6.1-6.1-6.1S-6,12.1-6,15.5s2.7,6.1,6.1,6.1S6.3,18.9,6.3,15.5z
		"/>
	<path fill="#333333" d="M2.9-29.5c0-1.4-1.3-2.6-2.8-2.6s-2.8,1.1-2.8,2.6s1.3,2.6,2.8,2.6S2.9-28.1,2.9-29.5z"/>
</symbol>
<use xlink:href="#Pin_5"  width="33.7" height="64.1" id="XMLID_25_" x="-16.8" y="-32.1" transform="matrix(1.6042 0 0 -1.6066 26.9998 51.5003)" overflow="visible"/>
</svg>
