<?xml version="1.0" encoding="utf-8"?>
<!-- Generator: Adobe Illustrator 18.1.1, SVG Export Plug-In . SVG Version: 6.00 Build 0)  -->
<svg version="1.1" id="Warstwa_1" xmlns="http://www.w3.org/2000/svg" xmlns:xlink="http://www.w3.org/1999/xlink" x="0px" y="0px"
	 width="22px" height="29px" viewBox="0 0 22 29" enable-background="new 0 0 22 29" xml:space="preserve">
<g>
	<path fill="#F1614D" d="M18.6,0h-1.3c0.8,0,1.4,0.5,1.4,1.3S18,2.6,17.2,2.6c-0.8,0-1.4-0.5-1.4-1.3S16.5,0,17.2,0h-4.3
		c0.8,0,1.4,0.5,1.4,1.3s-0.6,1.3-1.4,1.3S11.5,2,11.5,1.3S12.1,0,12.9,0H8.5c0.8,0,1.4,0.5,1.4,1.3S9.3,2.6,8.5,2.6
		C7.8,2.6,7.2,2,7.2,1.3S7.8,0,8.5,0H4.2c0.8,0,1.4,0.5,1.4,1.3S4.9,2.6,4.2,2.6S2.8,2,2.8,1.3S3.4,0,4.2,0c0,0-1.1,0-0.3,0H0v29h22
		V0C22,0,17.8,0,18.6,0z"/>
	<rect x="4" y="17" fill="#333333" width="14" height="2"/>
	<rect x="8" y="21" fill="#333333" width="6" height="2"/>
</g>
</svg>
