<?xml version="1.0" encoding="utf-8"?>
<!-- Generator: Adobe Illustrator 18.1.1, SVG Export Plug-In . SVG Version: 6.00 Build 0)  -->
<svg version="1.1" id="Warstwa_1" xmlns="http://www.w3.org/2000/svg" xmlns:xlink="http://www.w3.org/1999/xlink" x="0px" y="0px"
	 width="68px" height="140px" viewBox="8 -95 68 140" enable-background="new 8 -95 68 140" xml:space="preserve">
<path id="audio-7-icon_4_" fill="#333333" d="M33-86.7L20.4-84v9.8c-2.5-0.5-5,1.8-4.3,3.9c1,2.8,6.4,2,6.4-1.8c0-1.6,0-7.7,0-7.7
	l8.4-1.8v6.2c-2.5-0.5-5,1.8-4.3,3.9c1,2.8,6.4,2,6.4-1.8C33-75.8,33-75.8,33-86.7z"/>
<polygon fill="#333333" points="20.5,-50.3 33.5,-42.3 20.5,-35.3 "/>
<path id="id-card-icon_2_" fill="#333333" d="M23.7,29.7c-1.4-0.3-2.8-0.6-2.1-1.8c2-3.7,0.5-5.7-1.6-5.7c-2.1,0-3.5,2.1-1.6,5.7
	c0.7,1.2-0.7,1.5-2.1,1.8C14.9,30,15,30.8,15,32.1h10C25,30.8,25.1,30,23.7,29.7z"/>
<rect x="27" y="26.1" fill="#333333" width="5" height="2"/>
<rect x="27" y="30.1" fill="#333333" width="7" height="2"/>
<rect x="27" y="22.1" fill="#333333" width="10" height="2"/>
<g>
	<rect x="19" y="-15" fill="#333333" width="5" height="15"/>
	<rect x="27" y="-15" fill="#333333" width="5" height="15"/>
</g>
</svg>
