<svg xmlns="http://www.w3.org/2000/svg" width="62.5" height="37.1" viewBox="0 0 62.5 37.1"><g opacity=".6"><path fill="#878787" d="M5.3 6.5V2.3c-.1.5-.2.9-.3 1.1l-.7 3.1H2.9l-.8-3-.3-1.2v4.3H.1V.2h2.4l.9 3.2c0 .1.1.4.2.9.1-.5.2-.8.2-.9L4.7.2h2.4v6.3H5.3zm3.1-5.2V0h1.8v1.3H8.4zm0 5.2V1.8h1.8v4.7H8.4zm6.3 0V4.1c0-.6-.1-.9-.6-.9s-.7.3-.7.9v2.4h-1.8V1.8h1.7v.7c.4-.5.9-.8 1.6-.8.6 0 1 .2 1.3.6.4.4.4 1 .4 1.8v2.4h-1.9zm3.1-5.2V0h1.8v1.3h-1.8zm0 5.2V1.8h1.8v4.7h-1.8zm5.1.2c-1.5 0-2.3-.5-2.4-1.6h1.8c0 .4.2.6.6.6.4 0 .6-.1.6-.4 0-.3-.3-.4-.8-.5-1.4-.3-2.1-.6-2.1-1.6s.8-1.5 2.3-1.5c1.4 0 2.1.5 2.2 1.5h-1.6c0-.3-.3-.5-.6-.5s-.5.1-.5.3c0 .3.3.3.9.5 1.4.3 2 .6 2 1.6.1 1-.8 1.6-2.4 1.6zm5.2-.1c-1.1 0-1.6-.3-1.6-1.3V2.9h-.7V1.8h.7V.4h1.8v1.4h.9v1.1h-.9v1.9c0 .3.2.4.6.4h.3v1.4h-1.1zm3.6-2c0 .6.3.9.8.9.4 0 .6-.1.7-.4H35c-.3 1-1.1 1.6-2.5 1.6-1.6 0-2.6-1-2.6-2.5 0-1.6 1-2.6 2.6-2.6s2.6 1 2.6 2.8v.1h-3.4zm.8-1.8c-.5 0-.8.3-.8.9h1.6c0-.6-.3-.9-.8-.9zm6.3.7c-.7 0-1.1.3-1.1 1.1v1.9h-1.8V1.8h1.7v.9c.2-.7.7-1 1.4-1h.2v1.9c-.1-.1-.3-.1-.4-.1zm3.4 3.2c-1.5 0-2.3-.5-2.4-1.6h1.8c0 .4.2.6.6.6.4 0 .6-.1.6-.4 0-.3-.3-.4-.8-.5-1.4-.3-2.1-.6-2.1-1.6s.8-1.5 2.3-1.5c1.4 0 2.1.5 2.2 1.5h-1.6c0-.3-.3-.5-.6-.5s-.5.1-.5.3c0 .3.3.3.9.5 1.4.3 2 .6 2 1.6s-.8 1.6-2.4 1.6zm5.2-.1c-1.1 0-1.6-.3-1.6-1.3V2.9h-.7V1.8h.7V.4h1.8v1.4h.9v1.1h-.9v1.9c0 .3.2.4.6.4h.3v1.4h-1.1zm8.2-.1h-1.8l-.7-2.7-.7 2.7h-1.8l-1.5-4.7h1.8l.7 2.9.7-2.9h1.5l.7 2.9.7-2.9H57l-1.4 4.7zm4.2.2c-1.6 0-2.6-1-2.6-2.5 0-1.6 1-2.5 2.6-2.5s2.6 1 2.6 2.5-1 2.5-2.6 2.5zm0-3.8c-.6 0-.8.4-.8 1.2 0 .8.2 1.2.8 1.2.6 0 .8-.4.8-1.2 0-.8-.3-1.2-.8-1.2z"/><path d="M5.4 17.3l-2.1-3.4-.7.7v2.7H0V8.8h2.7v2.8l2.4-2.8h3.1l-3 3.2 3.4 5.4H5.4zm8 0v-.9c-.6.7-1.3 1.1-2.2 1.1-.8 0-1.4-.3-1.8-.8-.4-.6-.4-1.3-.4-2.4V11h2.5v3.3c0 .9.2 1.3.8 1.3.6 0 .9-.4.9-1.3V11h2.5v6.3h-2.3zm3.9 0V8.8h2.5v8.6h-2.5zm6.6.1c-1.5 0-2.1-.4-2.1-1.8v-3.2h-.9V11h.9V9h2.5v2h1.2v1.5h-1.2V15c0 .5.2.6.8.6h.4v1.8h-1.6zm7.1-.1v-.9c-.6.7-1.3 1.1-2.2 1.1-.8 0-1.4-.3-1.8-.8-.5-.6-.5-1.4-.5-2.5V11H29v3.3c0 .9.2 1.3.8 1.3.6 0 .9-.4.9-1.3V11h2.5v6.3H31zm7.7-4c-1 0-1.5.4-1.5 1.4v2.6h-2.5V11H37v1.2c.3-.9.9-1.3 1.9-1.3h.2v2.5c-.1-.1-.3-.1-.4-.1zm6.1 4c-.3 1-.6 1.7-.9 2-.5.5-1.1.5-2 .5h-1.3v-1.9h.7c.5 0 .7-.1.7-.5 0-.2 0-.4-.1-.6l-2-5.8h2.5l1.1 3.8 1.1-3.8h2.3l-2.1 6.3z"/><path fill="#878787" d="M0 21.2v-1.3h1.8v1.3H0zm0 5.2v-4.7h1.8v4.7H0zm10.3-.3c-.5.2-1.3.3-2.2.3H6V20h2.4c.9 0 1.6 0 2.2.4.9.5 1.3 1.4 1.3 2.8s-.6 2.4-1.6 2.9zm-1.7-4.5H8v3.1h.5c1 0 1.3-.4 1.3-1.6.1-1-.3-1.5-1.2-1.5zm3.8 4.8v-1.3l2.1-2.1h-1.9v-1.4h4.1v1.3l-2 2.1h2.2v1.4h-4.5zm5.2-5.2v-1.3h1.8v1.3h-1.8zm0 5.2v-4.7h1.8v4.7h-1.8zm4.6-2c0 .6.3.9.9.9.4 0 .6-.1.7-.4h1.8c-.3 1-1.1 1.6-2.5 1.6-1.6 0-2.6-1-2.6-2.5 0-1.6 1-2.6 2.6-2.6s2.6 1 2.6 2.8v.1h-3.5zm.8-1.8c-.5 0-.8.3-.8.9h1.6c0-.6-.3-.9-.8-.9zm6.8 3.8v-.6c-.4.5-.9.7-1.5.7-1.2 0-2-1-2-2.5s.8-2.5 2-2.5c.6 0 1 .2 1.4.6V20h1.8v6.3h-1.7zm-.9-3.4c-.5 0-.7.4-.7 1.1 0 .7.3 1.1.7 1.1.5 0 .8-.4.8-1.1-.1-.8-.3-1.1-.8-1.1zm3.2 3.4v-1.3l2.1-2.1h-1.9v-1.4h4.1v1.3l-2 2.1h2.2v1.4h-4.5zm5.2-5.2v-1.3h1.8v1.3h-1.8zm0 5.2v-4.7h1.8v4.7h-1.8zm5.2.1c-1.6 0-2.6-1-2.6-2.5 0-1.6 1-2.5 2.6-2.5 1.5 0 2.5.8 2.5 2h-1.8c0-.4-.3-.7-.7-.7-.5 0-.8.4-.8 1.2 0 .8.2 1.2.8 1.2.4 0 .7-.2.7-.7H45c-.1 1.3-1 2-2.5 2zm5.1-.1c-1.1 0-1.6-.3-1.6-1.3v-2.3h-.7v-1.1h.7v-1.4h1.8v1.4h.9v1.1h-.9v1.9c0 .3.2.4.6.4h.3v1.4c-.3-.1-.7-.1-1.1-.1zm8.1 0h-1.8l-.7-2.7-.7 2.7h-1.8l-1.5-4.7H51l.7 2.9.7-2.9H54l.7 2.9.7-2.9h1.7l-1.4 4.7zm5 0l-.1-.5c-.5.4-1 .6-1.7.6-1 0-1.6-.5-1.6-1.5s.6-1.3 2-1.5c.9-.1 1.3-.1 1.3-.5 0-.3-.2-.4-.7-.4-.4 0-.6.1-.6.5h-1.8c0-1.1.8-1.6 2.5-1.6.8 0 1.5.2 1.8.4.5.3.6.7.6 1.3v2.6c0 .2.1.3.2.4v.1h-1.9zm-.2-2.1c-.8.3-1.4.3-1.4.7 0 .3.2.4.5.4.6 0 .9-.3.9-.9v-.2zM4 35.2l-1.8-2.9c-.1-.2-.2-.5-.4-.9.2.3.2.6.2.8v3H.1v-6.3H2l1.8 2.9c.1.2.2.5.4.9-.2-.3-.2-.6-.2-.9v-3h1.9v6.3H4zm6.2 0l-.1-.5c-.5.4-1 .6-1.7.6-1 0-1.6-.5-1.6-1.5s.6-1.3 2-1.5c.9-.1 1.3-.1 1.3-.5 0-.3-.2-.4-.7-.4-.4 0-.6.1-.6.5H7c0-1.1.9-1.6 2.5-1.6.8 0 1.5.2 1.8.4.5.3.6.7.6 1.3v2.6c0 .2.1.3.2.4v.1h-1.9zm-.2-2.1c-.9.3-1.4.3-1.4.7 0 .3.2.4.5.4.6 0 .9-.3.9-.9v-.2zm5.7-.9c-.7 0-1.1.3-1.1 1.1v1.9h-1.8v-4.7h1.7v.9c.2-.7.7-1 1.4-1h.2v1.9c-.1-.1-.2-.1-.4-.1zm3.4 3.2c-1.6 0-2.6-1-2.6-2.5 0-1.6 1-2.5 2.6-2.5s2.6 1 2.6 2.5-1 2.5-2.6 2.5zm0-3.8c-.6 0-.8.4-.8 1.2 0 .8.2 1.2.8 1.2.6 0 .8-.4.8-1.2 0-.8-.2-1.2-.8-1.2zm6.6 3.6v-.6c-.4.5-.9.7-1.5.7-1.2 0-2-1-2-2.5s.8-2.5 2-2.5c.6 0 1 .2 1.4.6v-2.2h1.8V35h-1.7zm-.9-3.4c-.5 0-.7.4-.7 1.1 0 .7.3 1.1.7 1.1.5 0 .8-.4.8-1.1-.1-.7-.3-1.1-.8-1.1zm5.8 3.6c-1.6 0-2.6-1-2.6-2.5 0-1.6 1-2.5 2.6-2.5s2.6 1 2.6 2.5-1 2.5-2.6 2.5zm0-3.8c-.6 0-.8.4-.8 1.2 0 .8.2 1.2.8 1.2.6 0 .8-.4.8-1.2 0-.8-.2-1.2-.8-1.2zm9.2 3.6H38l-.7-2.7-.7 2.7h-1.8l-1.5-4.7h1.8l.7 2.9.7-2.9H38l.7 2.9.7-2.9h1.7l-1.3 4.7zm3.4-1.9c0 .6.3.9.9.9.4 0 .6-.1.7-.4h1.8c-.3 1-1.1 1.6-2.5 1.6-1.6 0-2.6-1-2.6-2.5 0-1.6 1-2.6 2.6-2.6s2.6 1 2.6 2.8v.1h-3.5zm.8-1.8c-.5 0-.8.3-.8.9h1.6c0-.7-.3-.9-.8-.9zm5.7 5.6c-1.3 0-2.1-.5-2.2-1.4h1.8c0 .2.2.3.5.3.6 0 .7-.3.7-1v-.3c-.3.3-.7.5-1.3.5-1.2 0-2.1-.9-2.1-2.4s.8-2.5 2-2.5c.7 0 1.1.2 1.5.7v-.6h1.6v4.3c.1 1.8-.6 2.4-2.5 2.4zm.1-5.3c-.5 0-.7.4-.7 1.1 0 .7.2 1.1.7 1.1.5 0 .8-.4.8-1.1-.1-.8-.4-1.1-.8-1.1zm5.7 3.6c-1.6 0-2.6-1-2.6-2.5 0-1.6 1-2.5 2.6-2.5s2.6 1 2.6 2.5-.9 2.5-2.6 2.5zm0-3.8c-.6 0-.8.4-.8 1.2 0 .8.2 1.2.8 1.2.6 0 .8-.4.8-1.2 0-.8-.2-1.2-.8-1.2z"/><path fill-rule="evenodd" clip-rule="evenodd" d="M59.5 32.4h2.8v2.8h-2.8v-2.8zm-1.1 2.8"/></g></svg>