<svg xmlns="http://www.w3.org/2000/svg" width="56.6" height="37.8" viewBox="0 0 56.6 37.8"><g opacity=".6"><path fill="#BF2026" d="M8.6 7.4h.2c-.1-.1-.1-.1-.2 0"/><path fill="#242424" d="M18.7 37.8c-1.2 0-2.2-.3-2.9-.6l.5-1.3c.5.3 1.4.5 2.3.5 1.3 0 2-.7 2-2v-.6c-.4.2-1.1.3-1.6.3-2.1 0-3.5-1.4-3.5-3.9 0-2.8 1.6-4.1 4-4.1 1.1 0 2.1.2 2.7.6v7.7c0 2.2-1.3 3.4-3.5 3.4m1.9-10.2c-.3-.1-.7-.2-1.2-.2-1.3 0-2.3.8-2.3 2.8 0 1.8.9 2.7 2.1 2.7.5 0 1-.1 1.3-.3v-5zm7.4-.1c-.2-.1-.5-.1-.8-.1-.5 0-1 .1-1.3.2v6.8h-1.6v-7.7c.8-.3 1.9-.6 3.2-.6.4 0 .7 0 .9.1l-.4 1.3zm4.6 7c-2.3 0-3.5-1-3.5-2.6 0-2.3 2.4-2.7 4.9-2.8v-.5c0-1-.7-1.4-1.7-1.4-.8 0-1.7.2-2.3.5l-.4-1.1c.6-.3 1.8-.6 2.8-.6 1.9 0 3.1.8 3.1 2.8V34c-.5.3-1.7.5-2.9.5m1.4-4.2c-1.7.1-3.3.2-3.3 1.7 0 .9.7 1.4 1.9 1.4.5 0 1.1-.1 1.4-.2v-2.9zm8.5 4.1V29c0-1-.6-1.5-1.7-1.5-.6 0-1.2.1-1.5.2v6.7h-1.6v-7.7c.8-.3 1.9-.6 3.1-.6 2.3 0 3.4 1 3.4 2.7v5.6h-1.7zm6.3.1c-1.4 0-2.2-.8-2.2-2.4v-4.6h-1.1v-1.2h1.1v-1.9l1.6-.5v2.4h1.6v1.2h-1.6V32c0 .7.5 1 1.1 1 .2 0 .4 0 .6-.1v1.4c-.2.1-.7.2-1.1.2m4.7 0c-1 0-1.9-.3-2.5-.6l.6-1.3c.4.3 1.3.5 1.9.5.9 0 1.5-.4 1.5-1.1 0-.7-.6-1-1.4-1.3-1.1-.4-2.3-.9-2.3-2.4 0-1.3 1-2.3 2.9-2.3 1 0 1.8.2 2.4.6l-.5 1.1c-.4-.2-1.1-.5-1.7-.5-.9 0-1.3.5-1.3 1 0 .7.6 1 1.4 1.3 1.1.4 2.4.9 2.4 2.5-.3 1.6-1.4 2.5-3.4 2.5M22.5 19l-5.5.7c.2 1.5 1.1 2.2 2.5 2.2.8 0 1.7-.2 2.3-.5l.5 1.2c-.6.3-1.7.6-2.8.6-2.6 0-4-1.6-4-4.2 0-2.5 1.4-4.2 3.7-4.2 2.1 0 3.4 1.4 3.4 3.6-.1.2-.1.4-.1.6m-3.4-3c-1.3 0-2.1 1-2.1 2.7l3.9-.5c0-1.5-.7-2.2-1.8-2.2m11.8 3l-5.4.8c.2 1.5 1.1 2.2 2.5 2.2.8 0 1.7-.2 2.3-.5l.5 1.2c-.6.3-1.7.6-2.8.6-2.6 0-4-1.6-4-4.2 0-2.5 1.4-4.2 3.7-4.2 2.1 0 3.4 1.4 3.4 3.6-.2.1-.2.3-.2.5m-3.4-3c-1.3 0-2.1 1-2.1 2.7l3.9-.5c0-1.5-.7-2.2-1.8-2.2m8.2 7.3c-2.3 0-3.5-1-3.5-2.6 0-2.3 2.4-2.7 4.9-2.8v-.5c0-1-.7-1.4-1.7-1.4-.8 0-1.7.2-2.3.5l-.4-1.1c.7-.3 1.8-.6 2.8-.6 1.9 0 3.1.8 3.1 2.8v5.1c-.6.3-1.8.6-2.9.6M37 19c-1.7.1-3.3.2-3.3 1.7 0 .9.7 1.4 1.9 1.4.5 0 1.1-.1 1.4-.2V19zM15.4 0h.4v2.6h-.4zm2 2.7c-.6 0-1-.4-1-1.3s.5-1.3 1-1.3c.2 0 .4.1.6.1l-.1.3c-.1-.1-.2-.1-.4-.1-.4 0-.7.3-.7 1s.3 1 .7 1c.2 0 .3 0 .4-.1l.1.3c-.1 0-.3.1-.6.1m1.1 0V0h1.3v.4h-.9v.8h.9v.3h-.9v.8h.9v.4zm1.9 0V0h.4v2.3h.9v.4zm3.4 0l-.2-.7h-1l-.2.7H22l.8-2.7h.5l.9 2.6h-.4zm-.6-2c0-.1-.1-.3-.1-.3s0 .2-.1.3l-.3 1h.8l-.3-1zm3 2L25.1 1C25 .8 25 .7 25 .6v2h-.4V0h.4l1 1.7c.1.2.2.3.2.3V0h.4v2.6h-.4zm1.7 0c-.3 0-.6-.1-.7-.1V.1c.1 0 .4-.1.7-.1.6 0 1.1.5 1.1 1.3s-.5 1.4-1.1 1.4m0-2.4c-.1 0-.2 0-.3.1v1.9h.3c.4 0 .7-.3.7-1s-.3-1-.7-1m-12.5 6V3.6h.4v2.3h.9v.4zm1.8-2.7h.4v2.6h-.4zm1 2.7V3.6h1.4V4h-1v.8h.9v.3h-.9v.8h1v.4zm2.9 0c-.6 0-1-.4-1-1.3s.5-1.3 1-1.3c.2 0 .4.1.6.1l-.1.3c-.2-.1-.3-.1-.5-.1-.4 0-.7.3-.7 1s.3 1 .7 1c.2 0 .3 0 .4-.1l.1.3c-.1 0-.3.1-.5.1m2.4 0V5.1h-.9v1.2h-.5V3.6h.5v1.2h.9V3.6h.4v2.7zM25.4 4v2.3H25V4h-.6v-.4H26V4zm1.1 2.3V3.6h1.3V4h-.9v.8h.8v.3h-.8v.8h.9v.4zm3.4 0l-1.1-1.7c-.1-.1-.1-.3-.2-.3v2h-.4V3.6h.4l1 1.7c.1.1.1.3.2.3v-2h.4v2.6h-.3zm1.5 0c-.2 0-.5-.1-.6-.1l.1-.4c.1.1.3.1.5.1.3 0 .5-.1.5-.4 0-.2-.2-.3-.4-.4-.3-.1-.7-.3-.7-.8s.3-.7.8-.7c.2 0 .5.1.6.1l-.1.3h-.4c-.3 0-.4.1-.4.4 0 .2.2.3.4.4.3.1.7.3.7.8-.1.4-.4.7-1 .7M33.7 4v2.3h-.5V4h-.6v-.4h1.7V4zm1 2.3V3.6h1.4V4h-1v.8h.9v.3h-.9v.8h1v.4zm1.9-2.7h.4v2.6h-.4zm2.6 2.7l-1.1-1.7c0-.2-.1-.3-.1-.4v2h-.4V3.6h.4l1 1.7c.1.1.1.3.2.3v-2h.4v2.6h-.4zM17 9.9l-1.1-1.7c-.1-.1-.1-.3-.2-.3v2h-.4V7.2h.4l1 1.7.3.3v-2h.4v2.6H17zm1.9 0c-.7 0-1-.6-1-1.3 0-.8.3-1.3 1-1.3s1 .6 1 1.3c0 .7-.3 1.3-1 1.3m0-2.3c-.4 0-.6.4-.6 1s.2 1 .6 1c.4 0 .6-.4.6-1s-.2-1-.6-1m2.9 2.3l-.3-.9c-.1-.2-.2-.3-.4-.3h-.2v1.1h-.4V7.3c.2-.1.5-.1.7-.1.6 0 1 .3 1 .8 0 .4-.2.6-.6.7.1.1.2.2.3.4l.4.9h-.5zm-.6-2.4c-.1 0-.3 0-.4.1v.9h.3c.4 0 .6-.1.6-.5 0-.3-.1-.5-.5-.5m3.7 2.4h-.4l-.4-1.7c0-.2-.1-.3-.1-.4 0 0 0 .2-.1.4l-.4 1.7h-.4l-.7-2.6h.4l.5 1.7c0 .1.1.3.1.3 0-.1 0-.2.1-.3l.4-1.8h.3l.5 1.8c0 .1.1.3.1.3s0-.2.1-.3l.4-1.8h.4l-.8 2.7zm2.7 0l-.2-.7h-1l-.2.7h-.4l.9-2.6h.5l.8 2.6h-.4zm-.7-2c0-.1-.1-.3-.1-.3s0 .2-.1.3l-.3 1h.8l-.3-1zm2.3.9v1.1h-.4V8.8L28 7.2h.4l.6 1.2.5-1.2h.5zM1.8 0v2.6c1.9 0 3.7.7 5.1 2.2.1.1.2.1.3.2 1-.3 1.9-.4 2.9-.4-.4-.6-.8-1.1-1.4-1.7C6.8 1 4.3 0 1.8 0m6.8 7.4c1 2.6.4 5.7-1.7 7.8-1.1 1.1-2.4 1.8-3.8 2-.9.2-1.8.2-2.7 0 .3.9.7 1.9 1.2 2.7 1 0 2-.1 2.9-.4 1.6-.5 3-1.3 4.2-2.5 2.6-2.6 3.5-6.3 2.6-9.7-.9-.1-1.8-.1-2.7.1"/><path fill="#595959" d="M4.5 19.5c-1 .3-1.9.4-2.9.4.4.6.8 1.2 1.4 1.7 1.9 1.9 4.4 2.9 6.9 2.9v-2.6c-1.9 0-3.7-.7-5.1-2.2-.1 0-.2-.1-.3-.2M7.2 5c-1.6.5-3 1.3-4.2 2.5C.4 10.1-.5 13.8.4 17.2c.9.2 1.8.2 2.7 0-1-2.6-.4-5.7 1.7-7.8 1.1-1.1 2.4-1.8 3.8-2 .9-.2 1.8-.2 2.7 0-.3-.9-.7-1.9-1.2-2.7-1-.1-2 .1-2.9.3"/></g></svg>