<svg xmlns="http://www.w3.org/2000/svg" width="56.6" height="37.8" viewBox="0 0 56.6 37.8"><path opacity=".6" fill="none" d="M7.3 3.1c.3 1.4.9 2.7 2 3.8 2.1 2.1 5.2 2.7 7.8 1.7-.3-1.4-.9-2.8-2-3.8C13 2.6 10 2.1 7.3 3.1zM7.3 3.1c-.2-.9-.2-1.8 0-2.7-.1.8-.1 1.8 0 2.7z"/><path opacity=".6" fill="#242424" d="M6.6 30.2c0 2.5 1.4 3.9 3.5 3.9.6 0 1.2-.1 1.6-.3v.6c0 1.3-.6 2-2 2-.9 0-1.7-.2-2.3-.5L7 37.1c.7.3 1.7.6 2.9.6 2.1 0 3.5-1.2 3.5-3.4v-7.7c-.6-.3-1.6-.6-2.7-.6-2.5.1-4.1 1.4-4.1 4.2zm5.1 2.3c-.3.2-.9.3-1.3.3-1.3 0-2.1-.9-2.1-2.7 0-2 1-2.8 2.3-2.8.5 0 1 .1 1.2.2v5zM15.4 26.6v7.7H17v-6.8c.3-.1.8-.2 1.3-.2.3 0 .6 0 .8.1l.3-1.4c-.2 0-.6-.1-.9-.1-1.2.2-2.4.4-3.1.7zM23.6 26.1c-1.1 0-2.2.3-2.8.6l.4 1.1c.5-.3 1.5-.5 2.3-.5 1 0 1.7.4 1.7 1.4v.5c-2.5.1-4.9.5-4.9 2.8 0 1.6 1.2 2.6 3.5 2.6 1.1 0 2.3-.3 2.9-.6v-5.1c0-2.1-1.2-2.8-3.1-2.8zm1.5 7c-.3.1-.9.2-1.4.2-1.3 0-1.9-.5-1.9-1.4 0-1.4 1.7-1.6 3.3-1.7v2.9zM31.9 26.1c-1.3 0-2.3.2-3.1.6v7.7h1.6v-6.7c.3-.1.9-.2 1.5-.2 1.1 0 1.7.6 1.7 1.5v5.4h1.7v-5.6c-.1-1.7-1.2-2.7-3.4-2.7zM39.3 23.8l-1.6.5v1.9h-1.1v1.2h1.1V32c0 1.6.8 2.4 2.2 2.4.4 0 .8-.1 1-.2v-1.4c-.1.2-.3.2-.5.2-.6 0-1.1-.3-1.1-1v-4.5H41v-1.2h-1.6v-2.5zM45.4 29.6c-.8-.3-1.4-.6-1.4-1.3 0-.6.5-1 1.3-1 .6 0 1.3.3 1.7.5l.5-1.1c-.6-.3-1.4-.6-2.4-.6-1.8 0-2.9.9-2.9 2.3 0 1.5 1.2 2 2.3 2.4.8.3 1.4.6 1.4 1.3 0 .7-.6 1.1-1.5 1.1-.6 0-1.5-.3-1.9-.5l-.4 1.3c.6.3 1.6.6 2.5.6 2 0 3.2-1 3.2-2.4 0-1.7-1.3-2.1-2.4-2.6zM13.1 23.1v-5.6c0-1.7-1.1-2.7-3.4-2.7-1.3 0-2.3.2-3.1.6v7.7h1.6v-6.7c.3-.1.9-.2 1.5-.2 1.1 0 1.7.6 1.7 1.5v5.4h1.7zM18.4 23.3c2.3 0 3.6-1.8 3.6-4.2 0-2.4-1.3-4.2-3.6-4.2s-3.6 1.8-3.6 4.2c0 2.3 1.3 4.2 3.6 4.2zm0-7.2c1.3 0 1.9 1.1 1.9 2.9 0 1.8-.6 2.9-1.9 2.9-1.3 0-1.9-1.2-1.9-2.9s.6-2.9 1.9-2.9zM23.7 15.4v7.7h1.6v-6.8c.3-.1.8-.2 1.3-.2.3 0 .6 0 .8.1l.3-1.4c-.2 0-.6-.1-.9-.1-1.2.1-2.3.3-3.1.7zM40.3 15h-1.6l-1.4 5.4c-.1.4-.2 1.2-.2 1.3 0-.3-.2-.8-.3-1.3L35.2 15h-1.6l-1.5 5.4c-.1.5-.2 1-.3 1.3 0-.3-.1-.9-.2-1.3L30.3 15h-1.6l2.4 8.1h1.7l1.4-5.2c.1-.5.2-1 .3-1.2 0 .2.1.7.2 1.2l1.5 5.2h1.7l2.4-8.1zM47.6 22.7v-5.1c0-2-1.2-2.8-3.1-2.8-1.1 0-2.2.3-2.8.6l.4 1.1c.5-.3 1.5-.5 2.3-.5 1 0 1.7.4 1.7 1.4v.5c-2.5.1-4.9.5-4.9 2.8 0 1.6 1.2 2.6 3.5 2.6 1.2 0 2.4-.3 2.9-.6zm-4.8-2c0-1.5 1.7-1.6 3.3-1.7v2.9c-.3.1-.9.2-1.4.2-1.3 0-1.9-.6-1.9-1.4zM54.8 15L53 20.5c-.2.5-.3 1.1-.3 1.2 0-.2-.1-.6-.3-1.2L50.7 15h-1.8l3.1 8.1-1.2 3.2h1.7L56.6 15h-1.8zM21.6 8.7c1.9-1.9 2.9-4.4 2.9-6.9h-2.6c0 1.9-.7 3.7-2.2 5.1l-.3.3c.3 1 .4 1.9.4 2.9.7-.4 1.3-.8 1.8-1.4zM17.2 8.6c-2.6 1-5.7.4-7.8-1.7-1.1-1.1-1.8-2.4-2-3.8-.2-.9-.2-1.8 0-2.7-1 .2-1.9.6-2.8 1.1 0 .4 0 .8.1 1.2 0 .6.1 1.2.3 1.8.5 1.6 1.3 3 2.5 4.2 2.6 2.6 6.3 3.5 9.7 2.6.2-.9.2-1.8 0-2.7z"/><path opacity=".6" fill="#595959" d="M2.9 2.9C1 4.8 0 7.3 0 9.8h2.6c0-1.9.7-3.7 2.2-5.1l.2-.2c-.2-.6-.3-1.2-.3-1.8 0-.4-.1-.8-.1-1.2-.6.4-1.2.9-1.7 1.4z"/><path opacity=".6" fill="#AC162C" d="M4.7 2.7c0-.4-.1-.8-.1-1.2 0 .4 0 .8.1 1.2z"/><path opacity=".6" fill="#595959" d="M7.3 3.1c2.6-1 5.7-.4 7.8 1.7 1.1 1.1 1.8 2.4 2 3.8.2.9.2 1.8 0 2.7.9-.3 1.9-.7 2.7-1.2 0-1-.1-2-.4-2.9-.5-1.6-1.3-3-2.5-4.2C14.3.4 10.6-.5 7.2.4c0 .8 0 1.8.1 2.7z"/><path opacity=".6" fill="#AC162C" d="M17.2 8.6z"/></svg>