<svg xmlns="http://www.w3.org/2000/svg" width="68.7" height="43.4" viewBox="0 0 68.7 43.4"><g opacity=".6" fill="#231F20"><path d="M64.5 42.2v-41c0-.7.9-1.2 2.1-1.2s2.1.5 2.1 1.2v41.1c0 .7-.9 1.2-2.1 1.2-1.2-.1-2.1-.6-2.1-1.3zm-5.8-20.5V5.5c-.1.3-.9.9-1.6.9h-1.9v1.1c1.3 0 2.4 1.4 2.4 3.2 0 1.7-1.1 3.2-2.4 3.2V15c1.3 0 2.4 1.4 2.4 3.2 0 1.7-1.1 3.2-2.4 3.2v1c1.3 0 2.4 1.4 2.4 3.2 0 1.7-1.1 3.2-2.4 3.2v1.1c1.3 0 2.4 1.4 2.4 3.2 0 1.7-1.1 3.2-2.4 3.2v1.1H57c.8 0 1.5.6 1.6.9.1-1.7.1-16.6.1-16.6zM60 4.3h1.1v34.8H60zM62 3c0-.1.2-.2.5-.2s.5.1.5.2v37.5c0 .1-.2.2-.5.2s-.5-.1-.5-.2V3zM0 6.5h1.3V9l1.5-2.5h1.3L2.6 8.7l1.6 3.8H2.9L1.8 9.7l-.5.7v2H0V6.5zm9 3c0 2.1-.7 3.1-2.2 3.1-.7 0-1.3-.3-1.6-.8-.4-.5-.5-1.3-.5-2.3 0-2.1.7-3.1 2.2-3.1.7 0 1.2.3 1.6.8.3.5.5 1.3.5 2.3zm-1.4 0c0-.8-.1-1.3-.2-1.6-.1-.3-.3-.4-.6-.4s-.5.1-.6.4c-.1.2-.2.8-.2 1.6s.1 1.3.2 1.6c.1.3.3.4.6.4s.5-.1.6-.4c.1-.3.2-.8.2-1.6zm2.5-3h1.5l1.5 3.7V6.5h1v6H13l-1.8-4.3v4.3h-1v-6zm9.1 1.3l-1.1.4c-.2-.5-.4-.7-.8-.7-.2 0-.3.1-.5.2-.1.1-.2.2-.2.4s.1.3.2.4c.1.1.4.2.8.4.4.1.7.2.9.3.2.1.4.3.5.6.1.2.2.5.2.8 0 .6-.2 1-.6 1.4-.4.4-.9.5-1.5.5-1.1 0-1.8-.5-2.1-1.6l1.1-.3c.1.6.5.9 1 .9.2 0 .4-.1.6-.2.1-.1.2-.3.2-.5 0-.1-.1-.3-.1-.4-.1-.1-.3-.2-.7-.4-.5-.2-.8-.3-1-.4-.2-.1-.4-.3-.6-.6-.1-.2-.2-.5-.2-.8 0-.5.2-1 .5-1.3.3-.3.8-.5 1.4-.5 1 0 1.7.5 2 1.4zm1.2-1.3H24v1h-2.3v1.4h1.8v1h-1.8v1.5H24v1.1h-3.6v-6zm4.5 0h1.9c.4 0 .6 0 .8.1.2 0 .4.1.6.3.2.1.4.4.5.6.1.3.2.5.2.9 0 .7-.3 1.3-.8 1.6l1.1 2.6h-1.4l-.8-2.4h-.7v2.4H25V6.5zm1.3 1v1.7h.6c.5 0 .8-.3.8-.9 0-.2 0-.4-.1-.5l-.3-.3c-.1 0-.2-.1-.4-.1h-.6zm3.3-1h1.3l.6 4.1.8-4.1h1.2l.7 4.2.7-4.2H36l-1.3 6h-1.2l-.8-4.2-.8 4.2h-1.2l-1.2-6zm8.3 0h1.3l1.7 6h-1.3l-.3-1.2h-1.7l-.3 1.2H36l1.8-6zm1.1 3.7l-.6-2.4-.6 2.4h1.2zm5.5.1l1.2.1c0 .6-.2 1.2-.6 1.6-.4.4-.9.6-1.5.6-.7 0-1.3-.3-1.7-.8-.4-.5-.6-1.3-.6-2.3 0-1 .2-1.7.6-2.3.4-.5 1-.8 1.7-.8 1.2 0 1.9.8 2 2.3l-1.2.1c0-.9-.3-1.3-.8-1.3-.3 0-.5.1-.7.4-.2.3-.2.8-.2 1.7 0 .7.1 1.2.2 1.5.1.3.4.4.7.4.5 0 .8-.4.9-1.2zm2.8-3.8h1.3v4c0 .5 0 .9-.1 1.2-.1.3-.2.5-.5.7-.2.2-.6.3-1 .3-.2 0-.5 0-.8-.1v-1.1c.2 0 .4.1.5.1.2 0 .4-.1.5-.2.1-.1.1-.4.1-.8V6.5zm3.7 0h1.3l1.7 6h-1.3l-.3-1.2h-1.7l-.3 1.2h-1.2l1.8-6zm1.1 3.7l-.6-2.4-.6 2.4H52zM0 14.7h1.3v5.8H0v-5.8zm3.8 0h2.6c.2 0 .4.1.6.3.2.1.3.3.5.6.1.2.2.5.2.8 0 .7-.3 1.2-.8 1.5L8 20.4H6.5l-.8-2.3h-.6v2.3H3.8v-5.7zm1.3 1v1.6h.6c.5 0 .7-.3.7-.8 0-.2 0-.4-.1-.5-.1-.1-.2-.2-.3-.2-.1 0-.2-.1-.4-.1h-.5zm3.4-1H12v1H9.7V17h1.7v1H9.7v1.4H12v1H8.5v-5.7z"/><path d="M11.9 14.7h1.3l.6 4 .8-4h1.2l.7 4 .7-4h1.1L17 20.5h-1.1l-.8-4-.8 4h-1.1l-1.3-5.8zm6.8 0H20v5.8h-1.3v-5.8zm1.6 0h3.6v1.1h-1.2v4.7h-1.3v-4.7h-1.2v-1.1zm4.9 0h1.3l1.7 5.8h-1.3l-.3-1.2H25l-.3 1.2h-1.2l1.7-5.8zm1.1 3.6l-.6-2.3-.6 2.4h1.2zm2.2-3.6h1.3v4.7h1.9v1.1h-3.1v-5.8zm3.6 0h1.3v5.8h-1.3v-5.8zm1.9 0h3.7v.9l-2.4 3.9h2.5v1h-4v-.9l2.4-3.9H34v-1z"/><path d="M39.3 14.7h1.3l1.7 5.8H41l-.3-1.2H39l-.3 1.2h-1.2l1.8-5.8zm1.1 3.6l-.5-2.3-.6 2.4h1.1zm5 .1l1.2.1c0 .6-.2 1.1-.6 1.5-.4.4-.8.6-1.4.6-.7 0-1.3-.3-1.6-.8-.4-.5-.6-1.3-.6-2.2 0-.9.2-1.7.6-2.2.4-.5.9-.8 1.7-.8 1.2 0 1.9.7 2 2.2l-1.3.2c0-.9-.3-1.3-.8-1.3-.3 0-.5.1-.6.4-.2.3-.2.8-.2 1.6 0 .7.1 1.2.2 1.5.1.3.4.4.6.4.4 0 .7-.4.8-1.2zm2.3-3.7H49v3.8c0 .5 0 .9-.1 1.1-.1.3-.2.5-.4.6-.2.2-.6.2-1 .2-.2 0-.5 0-.8-.1v-1.1c.2 0 .4.1.5.1.2 0 .4-.1.4-.2.1-.1.1-.4.1-.8v-3.6zm3.3 0h1.3l1.7 5.8h-1.3l-.3-1.2h-1.6l-.3 1.2h-1.2l1.7-5.8zm1.1 3.6l-.6-2.3-.6 2.4h1.2zM0 22.2h1.6c.7 0 1.2.1 1.6.3.4.2.8.5 1 1 .3.5.4 1.1.4 2 0 .6-.1 1.1-.2 1.6-.2.5-.4.8-.6 1.1-.2.3-.5.4-.8.5-.3.1-.7.1-1.2.1H0v-6.6zm1.4 1.1v4.3h.2c.3 0 .6-.1.8-.2.2-.1.3-.4.4-.7.1-.3.2-.8.2-1.4 0-.6-.1-1-.2-1.3-.1-.3-.3-.5-.5-.6-.2-.1-.4-.2-.7-.2h-.2zm4-1.1h4.2v1l-2.7 4.4h2.8v1.2H5.2v-1L8 23.3H5.4v-1.1zm5.3 0h1.4v6.6h-1.4v-6.6zm2.9 0h4v1.1h-2.5v1.5h2v1.1h-2v1.6h2.5v1.2h-4v-6.5zm5 0h1.6c.7 0 1.2.1 1.6.3.4.2.8.5 1 1 .3.5.4 1.1.4 2 0 .6-.1 1.1-.2 1.6-.2.5-.4.8-.6 1.1-.2.3-.5.4-.8.5-.3.1-.7.1-1.2.1h-1.7v-6.6zm1.5 1.1v4.3h.2c.3 0 .6-.1.8-.2.2-.1.3-.4.4-.7.1-.3.2-.8.2-1.4 0-.6-.1-1-.2-1.3-.1-.3-.3-.5-.5-.6-.2-.1-.4-.2-.7-.2h-.2zm3.9-1.1h4.2v1l-2.7 4.4h2.8v1.2h-4.5v-1l2.8-4.4H24v-1.2zm5.3 0h1.4v6.6h-1.4v-6.6zm6.2 4.1l1.3.1c0 .7-.3 1.3-.7 1.7-.4.4-.9.7-1.6.7-.8 0-1.4-.3-1.8-.9-.4-.6-.6-1.4-.6-2.5s.2-1.9.6-2.5c.4-.6 1-.9 1.9-.9 1.4 0 2.1.8 2.2 2.5l-1.3.1c0-1-.3-1.5-.9-1.5-.3 0-.5.2-.7.5-.2.3-.3.9-.3 1.8 0 .8.1 1.4.2 1.7.2.3.4.5.7.5.5 0 .9-.4 1-1.3zm1.7-4.1h4.1v1.2H40v5.3h-1.4v-5.3h-1.3v-1.2zm4.7 0h1.5l.7 4.5.9-4.5h1.3l.8 4.6.8-4.6H49l-1.4 6.6h-1.3l-.9-4.6-.9 4.6h-1.3l-1.3-6.6zm9.1 0h1.5l1.9 6.6h-1.5l-.3-1.4h-1.8l-.3 1.4H49l2-6.6zm1.2 4l-.7-2.7-.6 2.7h1.3zM0 30.7h1.4v2.7L3 30.7h1.4l-1.6 2.4 1.8 4.1H3.1l-1.1-3-.6.8v2.2H0v-6.5zm4.9 0h1.4v3.7c0 .5 0 .9.1 1.1 0 .2.1.4.3.5.2.1.3.2.6.2.2 0 .4-.1.6-.2 0-.2.1-.3.1-.5v-4.8h1.2v3.6c0 .7 0 1.3-.1 1.6-.1.4-.3.7-.6.9-.3.3-.8.4-1.4.4-.6 0-1-.1-1.3-.3-.3-.2-.6-.5-.7-.8-.1-.3-.2-.9-.2-1.8v-3.6zm5.3 0h1.4V36h2.1v1.2h-3.5v-6.5zm3 0h4v1.2h-1.3v5.2h-1.4v-5.2h-1.3v-1.2zm4.3 0h1.4v3.7c0 .5 0 .9.1 1.1 0 .2.1.4.3.5.2.1.3.2.6.2.2 0 .4-.1.6-.2.1-.1.2-.3.3-.5v-4.8H22v3.6c0 .7 0 1.3-.1 1.6-.1.4-.3.7-.6.9-.3.3-.8.4-1.4.4-.6 0-1-.1-1.3-.3-.3-.2-.6-.5-.7-.8-.1-.3-.2-.9-.2-1.8v-3.6zm5.3 0h2c.4 0 .7 0 .9.1.2 0 .4.1.6.3.2.2.4.4.5.7.1.3.2.6.2.9 0 .8-.3 1.4-.9 1.7l1.2 2.8h-1.5l-.8-2.6h-.7v2.6h-1.4v-6.5zm1.5 1.1v1.8h.6c.6 0 .8-.3.8-.9 0-.2 0-.4-.1-.5l-.3-.3c-.1-.1-.3-.1-.5-.1h-.5zm8 2.1c0 2.2-.8 3.3-2.3 3.3-.8 0-1.4-.3-1.8-.8-.4-.6-.6-1.4-.6-2.5 0-2.2.8-3.3 2.3-3.3.8 0 1.3.3 1.7.8.5.6.7 1.4.7 2.5zm-1.5 0c0-.9-.1-1.5-.2-1.7-.1-.3-.4-.4-.6-.4-.3 0-.5.1-.6.4-.1.3-.2.9-.2 1.7 0 .9.1 1.4.2 1.7.1.3.3.4.6.4s.5-.1.6-.4c.1-.2.2-.8.2-1.7zm1.6-3.2h1.5l.7 4.5.8-4.5h1.3l.8 4.5.8-4.5h1.2L38 37.2h-1.3l-.9-4.5-.8 4.5h-1.3l-1.3-6.5zm7.3 0h3.9v1.1h-2.5v1.5H43v1.1h-1.9V36h2.5v1.2h-3.9v-6.5zm6.7 3h2.2v3.4H48l-.2-.7c-.3.6-.9.8-1.6.8-.7 0-1.3-.3-1.7-.9-.4-.6-.6-1.4-.6-2.3 0-1.1.2-1.9.6-2.5.4-.6 1.1-.9 1.9-.9 1.3 0 2.1.7 2.2 2.2l-1.3.2c-.1-.8-.4-1.3-.9-1.3-.3 0-.6.2-.8.5-.2.3-.3.9-.3 1.8 0 .8.1 1.3.3 1.6.2.3.5.5.8.5.6 0 .9-.4.9-1.3h-1v-1.1zm7.5.2c0 2.2-.8 3.3-2.3 3.3-.8 0-1.4-.3-1.8-.8-.4-.6-.6-1.4-.6-2.5 0-2.2.8-3.3 2.3-3.3.8 0 1.3.3 1.7.8.5.6.7 1.4.7 2.5zm-1.5 0c0-.9-.1-1.5-.2-1.7-.1-.3-.4-.4-.6-.4-.3 0-.5.1-.6.4-.1.3-.2.9-.2 1.7 0 .9.1 1.4.2 1.7.1.3.4.4.7.4.3 0 .5-.1.6-.4.1-.2.1-.8.1-1.7z"/></g></svg>