<svg xmlns="http://www.w3.org/2000/svg" width="93.1" height="58.3" viewBox="0 0 93.1 58.3"><path fill="none" d="M0 0h93.1v58.3H0z"/><g fill="#828174"><path d="M7.1 43.3h.3l.9 1.4.9-1.4h.3v2.5h-.2v-2l-.9 1.3-.9-1.3v2h-.4v-2.5zM10.6 44.7v-1.5h.3v1.4c0 .5.3.8.8.8s.8-.3.8-.8v-1.5h.3v1.4c0 .7-.4 1.1-1 1.1-.8.2-1.2-.2-1.2-.9zM13.6 45.6l1.6-2.1h-1.6v-.3h2v.2L14 45.5h1.6v.3h-2v-.2zM16.5 43.3h1.8v.3h-1.5v.9h1.4v.3h-1.4v.9h1.5v.3h-1.8v-2.7zM19.2 44.7v-1.5h.3v1.4c0 .5.3.8.8.8s.8-.3.8-.8v-1.5h.3v1.4c0 .7-.4 1.1-1 1.1-.8.2-1.2-.2-1.2-.9zM22.3 43.3h.3l.9 1.4.9-1.4h.3v2.5h-.3v-2l-.9 1.3-.9-1.3v2h-.3v-2.5zM27.2 43.3h.3v1.1h1.4v-1.1h.3v2.5h-.3v-1.1h-1.4v1.1h-.3v-2.5zM30.3 43.3h.3v2.5h-.3v-2.5zM31.5 45.4l.2-.2c.3.2.5.4.9.4.3 0 .6-.2.6-.4s-.1-.4-.7-.5c-.6-.1-.8-.3-.8-.7 0-.4.3-.7.8-.7.4 0 .6.1.9.3l-.2.2c-.2-.2-.5-.3-.7-.3-.3 0-.5.2-.5.4s.1.4.7.5c.6.1.8.3.8.7 0 .4-.4.7-.9.7-.4 0-.8-.1-1.1-.4zM34.9 43.5h-.8v-.3h2v.3h-.8v2.2H35v-2.2zM36.7 44.5c0-.7.5-1.3 1.3-1.3s1.3.6 1.3 1.3c0 .7-.5 1.3-1.3 1.3s-1.3-.6-1.3-1.3zm2.2 0c0-.6-.4-1-1-1s-1 .5-1 1c0 .6.4 1 1 1 .6.1 1-.4 1-1zM40.2 43.3h1.1c.3 0 .6.1.7.2.1.1.2.3.2.5 0 .4-.3.7-.7.7l.8 1H42l-.7-1h-.7v1h-.3v-2.4zm1 1.2c.4 0 .6-.2.6-.5s-.2-.5-.6-.5h-.8v1h.8zM43.1 43.3h.3v2.5h-.3v-2.5zM44.5 43.3h.3v2.5h-.3v-2.5zM7.2 50l1.6-2H7.2v-.3h2v.2L7.5 50h1.6v.3h-2V50zm.8-2.8h.3v.3H8v-.3zM10.8 49.2l-1-1.5h.3L11 49l.9-1.3h.3l-1 1.5v1h-.3v-1zM12.9 47.7h.9c.8 0 1.3.5 1.3 1.2s-.5 1.3-1.3 1.3h-.9v-2.5zm.3.3v2h.6c.6 0 1-.4 1-1s-.4-1-1-1h-.6zM15.8 49c0-.7.5-1.3 1.3-1.3s1.3.6 1.3 1.3c0 .7-.5 1.3-1.3 1.3s-1.3-.6-1.3-1.3zm2.3 0c0-.6-.4-1-1-1s-1 .5-1 1c0 .6.4 1 1 1s1-.4 1-1zm-.7-2l.3.1-.4.3H17l.4-.4zM18.9 47.7h.3l.7 2.1.7-2.1h.2l.7 2.1.7-2.1h.3l-.9 2.5h-.2l-.7-2-.7 2h-.2l-.9-2.5zM24.7 47.7h.9c.6 0 .9.3.9.8s-.5.8-1 .8H25v.9h-.3v-2.5zm.9 1.4c.4 0 .7-.2.7-.6 0-.4-.3-.5-.7-.5H25v1.1h.6zM27.3 49c0-.7.5-1.3 1.3-1.3s1.3.6 1.3 1.3c0 .7-.5 1.3-1.3 1.3s-1.3-.6-1.3-1.3zm2.2 0c0-.6-.4-1-1-1s-1 .5-1 1c0 .6.4 1 1 1s1-.4 1-1zM30.7 47.7h.3V50h1.4v.3h-1.7v-2.6zM33 49.9l.2-.2c.3.2.5.4.9.4.3 0 .6-.2.6-.4s-.1-.4-.7-.5c-.6-.1-.8-.3-.8-.7 0-.4.3-.7.8-.7.4 0 .6.1.9.3l-.2.2c-.2-.2-.5-.3-.7-.3-.3 0-.5.2-.5.4s.1.4.7.5c.6.1.8.3.8.7 0 .4-.4.7-.9.7-.4 0-.8-.2-1.1-.4zM35.8 47.7h.2v1.5l1.4-1.5h.4l-1.1 1.1 1.1 1.4h-.4l-1-1.2-.4.6v.7h-.3v-2.6zM38.6 47.7h.3v2.5h-.3v-2.5zM39.8 49c0-.7.5-1.3 1.3-1.3.5 0 .7.2 1 .4l-.2.2c-.2-.2-.4-.3-.8-.3-.6 0-1 .5-1 1 0 .6.4 1 1 1 .3 0 .6-.1.8-.4l.2.2c-.3.3-.5.4-1 .4-.8.1-1.3-.5-1.3-1.2zM42.8 47.7h.3v1.1h1.4v-1.1h.3v2.5h-.3v-1.1h-1.4v1.1h-.3v-2.5z"/></g><path fill="#A9A9A1" d="M57.4 23.7h8.3v26.6h-8.3z"/><path fill="#00A99D" d="M52.6 39.4v-8.3h24.1V15.3h-11v8.3h-8.3v-8.3h-4.8V7H85v32.4H52.6z"/><g fill="#828174"><path d="M7.1 31.1h3.1c1.9 0 3.1 1 3.1 2.6 0 1.8-1.5 2.7-3.3 2.7H8v2.9h-.9v-8.2zm3 4.5c1.4 0 2.3-.7 2.3-1.8 0-1.2-.9-1.8-2.2-1.8H8.1v3.7h2zM15.2 35.3c0-2.3 1.7-4.3 4.2-4.3s4.2 2 4.2 4.3-1.7 4.3-4.2 4.3-4.2-2-4.2-4.3zm7.5 0c0-1.9-1.4-3.5-3.3-3.5s-3.2 1.5-3.2 3.4 1.4 3.4 3.3 3.4c1.8.1 3.2-1.4 3.2-3.3zM26.1 31.1h.9v7.4h4.7v.9h-5.6v-8.3zM34 31.1h.9v8.3H34v-8.3zM37.8 31.1h.9l5.2 6.7v-6.7h.9v8.3h-.7l-5.4-6.8v6.8h-.9v-8.3z"/></g></svg>