<svg xmlns="http://www.w3.org/2000/svg" width="53.9" height="42.1" viewBox="0 0 53.9 42.1"><g opacity=".6" fill="#231F20"><path d="M45.3 34.6H49v-.5h-3.2v-1.8h2.8v-.5h-2.8V30H49v-.5h-3.7v5.1zm-6.7 0h.5l1.4-4.2 1.4 4.2h.5l1.8-5.2h-.6l-1.5 4.3-1.4-4.3h-.5l-1.4 4.3-1.5-4.3h-.6l1.9 5.2zm-5.1-.5c-1.2 0-2-1-2-2.1 0-1.2.8-2.1 2-2.1s2 1 2 2.1c0 1.2-.9 2.1-2 2.1m0 .6c1.6 0 2.6-1.2 2.6-2.7 0-1.4-1-2.6-2.6-2.6s-2.6 1.2-2.6 2.7c0 1.4 1 2.6 2.6 2.6m-7.2-2.6V30h1.6c.8 0 1.3.4 1.3 1 0 .7-.5 1.1-1.3 1.1h-1.6zm-.5 2.5h.6v-2h1.5l1.5 2h.6l-1.6-2.1c.8-.1 1.4-.6 1.4-1.5 0-.4-.1-.8-.4-1-.3-.3-.8-.5-1.5-.5h-2.2v5.1zm-3.7.1c1.3 0 2.1-.8 2.1-2.3v-2.9h-.6v3c0 1.1-.6 1.7-1.5 1.7-1 0-1.6-.6-1.6-1.7v-2.9H20v3c0 1.3.8 2.1 2.1 2.1m-5.5-.1h.6V30h1.7v-.5h-4v.5h1.7v4.6zm-5.3 0h3.5v-.5h-2.9v-4.6h-.6v5.1zm-3.6.1c1.3 0 2.1-.8 2.1-2.3v-2.9h-.6v3c0 1.1-.6 1.7-1.5 1.7-1 0-1.6-.6-1.6-1.7v-2.9h-.6v3c0 1.3.9 2.1 2.2 2.1m-7.5-.1h.6v-1.4l1.1-1.1 2 2.5h.7l-2.3-2.9 2.2-2.2h-.7L.9 32.6v-3.1H.2v5.1zM51.3 25.4c-1.2 0-2-1-2-2.1 0-1.2.8-2.1 2-2.1s2 1 2 2.1-.8 2.1-2 2.1m0 .5c1.6 0 2.6-1.2 2.6-2.7 0-1.4-1-2.6-2.6-2.6s-2.6 1.2-2.6 2.7c0 1.4 1 2.6 2.6 2.6m-8.9-.1h.5l1.4-4.2 1.4 4.2h.5l1.8-5.2h-.6l-1.5 4.3-1.4-4.3H44l-1.4 4.3-1.5-4.3h-.6l1.9 5.2zm-5.1 0h.6v-4.6h1.7v-.5h-4v.5h1.7v4.6zm-4.6.1c.9 0 1.5-.4 2.1-.9l-.4-.4c-.5.5-1 .7-1.7.7-1.1 0-2-.9-2-2.1 0-1.2.8-2.1 2-2.1.7 0 1.2.3 1.6.7l.4-.4c-.5-.5-1.1-.8-2-.8-1.5 0-2.6 1.2-2.6 2.7 0 1.4 1.1 2.6 2.6 2.6m-4.5-.1h.6v-5.1h-.6v5.1zm-5.3 0H27v-.5h-3.3l3.3-4.2v-.4h-4v.5h3.2l-3.3 4.2v.4zm-4.5-.5v-4.1h1.2c1.3 0 2.1.9 2.1 2s-.8 2-2.1 2h-1.2zm-.6.5h1.8c1.6 0 2.7-1.1 2.7-2.6 0-1.4-1.1-2.5-2.7-2.5h-1.8v5.1zm-5 0h3.7v-.5h-3.2v-1.8h2.8V23h-2.8v-1.8h3.1v-.5h-3.7v5.1zm-2.1 0h.6v-5.1h-.6v5.1zm-5.3 0h4.1v-.5H6.1l3.3-4.2v-.4h-4v.5h3.2l-3.3 4.2v.4zm-4.6-.5v-4.1H2c1.3 0 2.1.9 2.1 2s-.8 2-2.1 2H.8zm-.6.5H2c1.6 0 2.7-1.1 2.7-2.6 0-1.4-1.1-2.5-2.7-2.5H.2v5.1zM43.2 17H47v-.5h-3.2v-1.8h2.8v-.5h-2.8v-1.8h3.1v-.5h-3.7V17zM41 17h.6v-5.1H41V17zm-5.4 0h.6v-1.4l1.1-1.1 2 2.5h.7l-2.3-2.9 2.2-2.2h-.7l-3 3.1v-3.1h-.6V17zm-3 .1c1 0 1.7-.6 1.7-1.4 0-.8-.5-1.2-1.7-1.5-1.1-.2-1.4-.5-1.4-1s.4-.8 1.1-.8c.5 0 1 .2 1.5.6l.3-.4c-.5-.4-1.1-.6-1.8-.6-1 0-1.7.6-1.7 1.4 0 .8.5 1.2 1.7 1.5 1.1.2 1.3.5 1.3 1s-.5.9-1.1.9c-.7 0-1.2-.2-1.8-.7l-.4.4c.8.3 1.5.6 2.3.6m-8.4 0h.5l1.4-4.2 1.4 4.2h.5l1.8-5.2h-.6l-1.5 4.3-1.4-4.3h-.5l-1.4 4.3-1.4-4.3h-.6l1.8 5.2zm-5.1-.5c-1.2 0-2-1-2-2.1 0-1.2.8-2.1 2-2.1s2 1 2 2.1-.8 2.1-2 2.1m0 .5c1.6 0 2.6-1.2 2.6-2.7 0-1.4-1-2.6-2.6-2.6s-2.6 1.2-2.6 2.7c0 1.4 1 2.6 2.6 2.6m-7.6-.6v-4.1h1.2c1.3 0 2.1.9 2.1 2s-.8 2-2.1 2h-1.2zm-.6.5h1.8c1.6 0 2.7-1.1 2.7-2.6 0-1.4-1.1-2.5-2.7-2.5h-1.8V17zm-3.8 0h.6v-2l2.1-3.1h-.6l-1.7 2.6-1.7-2.6H5L7.1 15v2zM0 17h4.1v-.5H.8l3.3-4.2v-.4h-4v.5h3.2L0 16.6v.4zm1.8-5.6h.7v-.7h-.7v.7zM.2 0h19.9v5.1H.2zM.2 41.4h19.9v.7H.2z"/></g></svg>